<mxfile host="www.draw.io" modified="2019-12-10T17:31:24.477Z" agent="Mozilla/5.0 (Windows NT 6.3; Win64; x64; rv:71.0) Gecko/20100101 Firefox/71.0" etag="Lyf-F7_IOfrq6BrK1zg2" version="12.3.9" type="github" pages="1">
  <diagram name="Page-1" id="c4acf3e9-155e-7222-9cf6-157b1a14988f">
    <mxGraphModel dx="2272" dy="1908" grid="1" gridSize="10" guides="1" tooltips="1" connect="1" arrows="1" fold="1" page="1" pageScale="1" pageWidth="850" pageHeight="1100" background="#ffffff" math="0" shadow="0">
      <root>
        <mxCell id="0"/>
        <mxCell id="1" parent="0"/>
        <mxCell id="17acba5748e5396b-1" value="Model" style="shape=umlFrame;whiteSpace=wrap;html=1;rounded=0;shadow=0;comic=0;labelBackgroundColor=none;strokeWidth=1;fontFamily=Verdana;fontSize=10;align=center;" parent="1" vertex="1">
          <mxGeometry x="-80" y="-30" width="1020" height="330" as="geometry"/>
        </mxCell>
        <mxCell id="flYTFr3mpApWbc6yr_6--1" value="View" style="shape=umlFrame;whiteSpace=wrap;html=1;rounded=0;shadow=0;comic=0;labelBackgroundColor=none;strokeWidth=1;fontFamily=Verdana;fontSize=10;align=center;" parent="1" vertex="1">
          <mxGeometry x="-80" y="300" width="520" height="420" as="geometry"/>
        </mxCell>
        <mxCell id="flYTFr3mpApWbc6yr_6--2" value="Controller" style="shape=umlFrame;whiteSpace=wrap;html=1;rounded=0;shadow=0;comic=0;labelBackgroundColor=none;strokeWidth=1;fontFamily=Verdana;fontSize=10;align=center;" parent="1" vertex="1">
          <mxGeometry x="440" y="300" width="500" height="420" as="geometry"/>
        </mxCell>
        <mxCell id="flYTFr3mpApWbc6yr_6--3" value="&lt;p style=&quot;margin: 0px ; margin-top: 4px ; text-align: center&quot;&gt;&lt;i&gt;&amp;lt;&amp;lt;Player&amp;gt;&amp;gt;&lt;/i&gt;&lt;br&gt;&lt;b&gt;Player&lt;/b&gt;&lt;/p&gt;&lt;hr size=&quot;1&quot;&gt;&lt;p style=&quot;margin: 0px ; margin-left: 4px&quot;&gt;+ canjump: bool&lt;br&gt;+ jump: float&lt;/p&gt;&lt;p style=&quot;margin: 0px ; margin-left: 4px&quot;&gt;+ speed: float&lt;br&gt;&lt;/p&gt;&lt;hr size=&quot;1&quot;&gt;&lt;p style=&quot;margin: 0px ; margin-left: 4px&quot;&gt;+ Start(): void&lt;br&gt;+ FixedUpdate(): void&lt;/p&gt;&lt;p style=&quot;margin: 0px ; margin-left: 4px&quot;&gt;- OnCollisionEnter2D(Collision2D): void&lt;br&gt;&lt;/p&gt;" style="verticalAlign=top;align=left;overflow=fill;fontSize=12;fontFamily=Helvetica;html=1;rounded=0;shadow=0;comic=0;labelBackgroundColor=none;strokeWidth=1;fillColor=#dae8fc;strokeColor=#000000;" parent="1" vertex="1">
          <mxGeometry x="460" y="27.5" width="230" height="200" as="geometry"/>
        </mxCell>
        <mxCell id="flYTFr3mpApWbc6yr_6--4" value="&lt;p style=&quot;margin: 0px ; margin-top: 4px ; text-align: center&quot;&gt;&lt;i&gt;&amp;lt;&amp;lt;World&amp;gt;&amp;gt;&lt;/i&gt;&lt;br&gt;&lt;b&gt;World&lt;/b&gt;&lt;/p&gt;&lt;hr size=&quot;1&quot;&gt;&lt;p style=&quot;margin: 0px ; margin-left: 4px&quot;&gt;- background: int&lt;br&gt;&lt;/p&gt;&lt;hr size=&quot;1&quot;&gt;&lt;p style=&quot;margin: 0px ; margin-left: 4px&quot;&gt;+ Start(): void&lt;/p&gt;&lt;p style=&quot;margin: 0px ; margin-left: 4px&quot;&gt;+ FixedUpdate(): void&lt;/p&gt;&lt;p style=&quot;margin: 0px ; margin-left: 4px&quot;&gt;+ getbackground(): int&lt;/p&gt;&lt;p style=&quot;margin: 0px ; margin-left: 4px&quot;&gt;+ generatePlatforms(): void&lt;/p&gt;&lt;p style=&quot;margin: 0px ; margin-left: 4px&quot;&gt;+ generateEnemy(): void&lt;/p&gt;&lt;p style=&quot;margin: 0px ; margin-left: 4px&quot;&gt;+ generatePlayer(): void&lt;/p&gt;&lt;p style=&quot;margin: 0px ; margin-left: 4px&quot;&gt;+ generatePowerUps(): void&lt;br&gt;&lt;/p&gt;&lt;p style=&quot;margin: 0px ; margin-left: 4px&quot;&gt;+ destroy(): void&lt;br&gt;&lt;/p&gt;" style="verticalAlign=top;align=left;overflow=fill;fontSize=12;fontFamily=Helvetica;html=1;rounded=0;shadow=0;comic=0;labelBackgroundColor=none;strokeWidth=1;fillColor=#FFB366;strokeColor=#000000;" parent="1" vertex="1">
          <mxGeometry x="610" y="420" width="190" height="200" as="geometry"/>
        </mxCell>
        <mxCell id="flYTFr3mpApWbc6yr_6--5" value="&lt;p style=&quot;margin: 0px ; margin-top: 4px ; text-align: center&quot;&gt;&lt;i&gt;&amp;lt;&amp;lt;Camera&amp;gt;&amp;gt;&lt;/i&gt;&lt;/p&gt;&lt;p style=&quot;margin: 0px ; margin-top: 4px ; text-align: center&quot;&gt;&lt;b&gt;Camera&lt;/b&gt;&lt;br&gt;&lt;b&gt;&lt;/b&gt;&lt;/p&gt;&lt;hr size=&quot;1&quot;&gt;&lt;p style=&quot;margin: 0px ; margin-left: 4px&quot;&gt;- speed: float&lt;br&gt;- zoom: float&lt;/p&gt;&lt;hr size=&quot;1&quot;&gt;&lt;p style=&quot;margin: 0px ; margin-left: 4px&quot;&gt;+ Start(): void&lt;br&gt;+ FixedUpdate(): void&lt;/p&gt;&lt;p style=&quot;margin: 0px ; margin-left: 4px&quot;&gt;+ getzoom(): float&lt;br&gt;+ getspeed(): float&lt;/p&gt;&lt;p style=&quot;margin: 0px ; margin-left: 4px&quot;&gt;+ moveCamera(): void&lt;/p&gt;" style="verticalAlign=top;align=left;overflow=fill;fontSize=12;fontFamily=Helvetica;html=1;rounded=0;shadow=0;comic=0;labelBackgroundColor=none;strokeWidth=1;fillColor=#FFFF99;strokeColor=#000000;fontColor=#333333;" parent="1" vertex="1">
          <mxGeometry x="60" y="435" width="190" height="175" as="geometry"/>
        </mxCell>
        <mxCell id="flYTFr3mpApWbc6yr_6--12" value="&lt;p style=&quot;margin: 0px ; margin-top: 4px ; text-align: center&quot;&gt;&lt;i&gt;&amp;lt;&amp;lt;Enemy&amp;gt;&amp;gt;&lt;/i&gt;&lt;br&gt;&lt;b&gt;Enemy&lt;/b&gt;&lt;/p&gt;&lt;hr size=&quot;1&quot;&gt;&lt;p style=&quot;margin: 0px ; margin-left: 4px&quot;&gt;- life: float&lt;br&gt;- position_x: float&lt;/p&gt;&lt;p style=&quot;margin: 0px ; margin-left: 4px&quot;&gt;- position_y: float&lt;/p&gt;&lt;hr size=&quot;1&quot;&gt;&lt;p style=&quot;margin: 0px ; margin-left: 4px&quot;&gt;+ Start(): void&lt;/p&gt;&lt;p style=&quot;margin: 0px ; margin-left: 4px&quot;&gt;+ Start(float): void&lt;/p&gt;&lt;p style=&quot;margin: 0px ; margin-left: 4px&quot;&gt;+ FixedUpdate(): void&lt;/p&gt;&lt;p style=&quot;margin: 0px ; margin-left: 4px&quot;&gt;+ getlife(): float&lt;br&gt;&lt;/p&gt;&lt;p style=&quot;margin: 0px ; margin-left: 4px&quot;&gt;+ getposition_x(): float&lt;/p&gt;&lt;p style=&quot;margin: 0px ; margin-left: 4px&quot;&gt;+ getposition_y(): float&lt;/p&gt;&lt;p style=&quot;margin: 0px ; margin-left: 4px&quot;&gt;+ destroy(): void&lt;br&gt;&lt;/p&gt;&lt;p style=&quot;margin: 0px ; margin-left: 4px&quot;&gt;&lt;br&gt;&lt;/p&gt;&lt;p style=&quot;margin: 0px ; margin-left: 4px&quot;&gt;&lt;br&gt;&lt;/p&gt;" style="verticalAlign=top;align=left;overflow=fill;fontSize=12;fontFamily=Helvetica;html=1;rounded=0;shadow=0;comic=0;labelBackgroundColor=none;strokeWidth=1;fillColor=#dae8fc;strokeColor=#000000;" parent="1" vertex="1">
          <mxGeometry x="740" y="28" width="190" height="223" as="geometry"/>
        </mxCell>
        <mxCell id="flYTFr3mpApWbc6yr_6--13" value="&lt;p style=&quot;margin: 0px ; margin-top: 4px ; text-align: center&quot;&gt;&lt;i&gt;&amp;lt;&amp;lt;PowerUps&amp;gt;&amp;gt;&lt;/i&gt;&lt;br&gt;&lt;b&gt;PowerUps&lt;/b&gt;&lt;/p&gt;&lt;hr size=&quot;1&quot;&gt;&lt;p style=&quot;margin: 0px ; margin-left: 4px&quot;&gt;- position_x: float&lt;/p&gt;&lt;p style=&quot;margin: 0px ; margin-left: 4px&quot;&gt;- position_y: float&lt;/p&gt;&lt;p style=&quot;margin: 0px ; margin-left: 4px&quot;&gt;- content: int&lt;/p&gt;&lt;hr size=&quot;1&quot;&gt;&lt;p style=&quot;margin: 0px ; margin-left: 4px&quot;&gt;+ Start(): void&lt;br&gt;+ FixedUpdate(): void&lt;/p&gt;&lt;p style=&quot;margin: 0px ; margin-left: 4px&quot;&gt;+ getposition_x(): float&lt;/p&gt;&lt;p style=&quot;margin: 0px ; margin-left: 4px&quot;&gt;+ getposition_y(): float&lt;/p&gt;&lt;p style=&quot;margin: 0px ; margin-left: 4px&quot;&gt;+ getcontent(): int&lt;/p&gt;&lt;p style=&quot;margin: 0px ; margin-left: 4px&quot;&gt;+ destroy(): void&lt;br&gt;&lt;/p&gt;" style="verticalAlign=top;align=left;overflow=fill;fontSize=12;fontFamily=Helvetica;html=1;rounded=0;shadow=0;comic=0;labelBackgroundColor=none;strokeWidth=1;fillColor=#dae8fc;strokeColor=#000000;" parent="1" vertex="1">
          <mxGeometry x="-50" y="28" width="190" height="203" as="geometry"/>
        </mxCell>
        <mxCell id="flYTFr3mpApWbc6yr_6--14" value="&lt;p style=&quot;margin: 0px ; margin-top: 4px ; text-align: center&quot;&gt;&lt;i&gt;&amp;lt;&amp;lt;Platforms&amp;gt;&amp;gt;&lt;/i&gt;&lt;br&gt;&lt;b&gt;Platforms&lt;/b&gt;&lt;/p&gt;&lt;hr size=&quot;1&quot;&gt;&lt;p style=&quot;margin: 0px ; margin-left: 4px&quot;&gt;- position_x: float&lt;br&gt;- position_y: float&lt;/p&gt;&lt;p style=&quot;margin: 0px ; margin-left: 4px&quot;&gt;- urban_type: int&lt;br&gt;&lt;/p&gt;&lt;hr size=&quot;1&quot;&gt;&lt;p style=&quot;margin: 0px ; margin-left: 4px&quot;&gt;+ Start(): void&lt;/p&gt;&lt;p style=&quot;margin: 0px ; margin-left: 4px&quot;&gt;+ FixedUpdate(): void&lt;/p&gt;&lt;p style=&quot;margin: 0px ; margin-left: 4px&quot;&gt;+ getposition_x(): float&lt;/p&gt;&lt;p style=&quot;margin: 0px ; margin-left: 4px&quot;&gt;+ getposition_y(): float&lt;/p&gt;&lt;p style=&quot;margin: 0px ; margin-left: 4px&quot;&gt;+ geturban_type(): int&lt;br&gt;&lt;/p&gt;" style="verticalAlign=top;align=left;overflow=fill;fontSize=12;fontFamily=Helvetica;html=1;rounded=0;shadow=0;comic=0;labelBackgroundColor=none;strokeWidth=1;fillColor=#dae8fc;strokeColor=#000000;" parent="1" vertex="1">
          <mxGeometry x="195" y="27.5" width="230" height="200" as="geometry"/>
        </mxCell>
        <mxCell id="flYTFr3mpApWbc6yr_6--16" value="" style="endArrow=diamondThin;endFill=0;endSize=24;html=1;exitX=0.195;exitY=0;exitDx=0;exitDy=0;exitPerimeter=0;entryX=0.5;entryY=1;entryDx=0;entryDy=0;" parent="1" source="flYTFr3mpApWbc6yr_6--4" target="flYTFr3mpApWbc6yr_6--13" edge="1">
          <mxGeometry width="160" relative="1" as="geometry">
            <mxPoint x="610" y="330" as="sourcePoint"/>
            <mxPoint x="590.408163265306" y="270" as="targetPoint"/>
          </mxGeometry>
        </mxCell>
        <mxCell id="flYTFr3mpApWbc6yr_6--17" value="" style="endArrow=diamondThin;endFill=0;endSize=24;html=1;exitX=0.395;exitY=0.005;exitDx=0;exitDy=0;exitPerimeter=0;entryX=0.5;entryY=1;entryDx=0;entryDy=0;" parent="1" source="flYTFr3mpApWbc6yr_6--4" target="flYTFr3mpApWbc6yr_6--14" edge="1">
          <mxGeometry width="160" relative="1" as="geometry">
            <mxPoint x="818.0500000000002" y="519.5" as="sourcePoint"/>
            <mxPoint x="310.0500000000002" y="262.4200000000001" as="targetPoint"/>
          </mxGeometry>
        </mxCell>
        <mxCell id="flYTFr3mpApWbc6yr_6--18" value="" style="endArrow=diamondThin;endFill=0;endSize=24;html=1;exitX=0.595;exitY=0;exitDx=0;exitDy=0;exitPerimeter=0;entryX=0.5;entryY=1;entryDx=0;entryDy=0;" parent="1" source="flYTFr3mpApWbc6yr_6--4" target="flYTFr3mpApWbc6yr_6--3" edge="1">
          <mxGeometry width="160" relative="1" as="geometry">
            <mxPoint x="988.0500000000002" y="527" as="sourcePoint"/>
            <mxPoint x="480.0500000000002" y="269.9200000000001" as="targetPoint"/>
          </mxGeometry>
        </mxCell>
        <mxCell id="flYTFr3mpApWbc6yr_6--19" value="" style="endArrow=diamondThin;endFill=0;endSize=24;html=1;exitX=0.795;exitY=0;exitDx=0;exitDy=0;exitPerimeter=0;entryX=0.5;entryY=1;entryDx=0;entryDy=0;" parent="1" source="flYTFr3mpApWbc6yr_6--4" target="flYTFr3mpApWbc6yr_6--12" edge="1">
          <mxGeometry width="160" relative="1" as="geometry">
            <mxPoint x="1104.0500000000002" y="537" as="sourcePoint"/>
            <mxPoint x="596.0500000000002" y="279.9200000000001" as="targetPoint"/>
          </mxGeometry>
        </mxCell>
        <mxCell id="flYTFr3mpApWbc6yr_6--20" value="" style="endArrow=diamondThin;endFill=1;endSize=24;html=1;entryX=1;entryY=0.5;entryDx=0;entryDy=0;exitX=0;exitY=0.5;exitDx=0;exitDy=0;" parent="1" source="flYTFr3mpApWbc6yr_6--4" target="flYTFr3mpApWbc6yr_6--5" edge="1">
          <mxGeometry width="160" relative="1" as="geometry">
            <mxPoint x="-290" y="980" as="sourcePoint"/>
            <mxPoint x="-130" y="980" as="targetPoint"/>
          </mxGeometry>
        </mxCell>
      </root>
    </mxGraphModel>
  </diagram>
</mxfile>
